Coordinates
version=1
nRows=5
nColumns=40
inDegrees=yes

Units are S.I. units (second, meters, Newtons, ...)
Angles are in degrees.

endheader
time	pelvis_tilt	pelvis_list	pelvis_rotation	pelvis_tx	pelvis_ty	pelvis_tz	hip_flexion_r	hip_adduction_r	hip_rotation_r	knee_angle_r	knee_angle_r_beta	ankle_angle_r	subtalar_angle_r	mtp_angle_r	hip_flexion_l	hip_adduction_l	hip_rotation_l	knee_angle_l	knee_angle_l_beta	ankle_angle_l	subtalar_angle_l	mtp_angle_l	lumbar_extension	lumbar_bending	lumbar_rotation	arm_flex_r	arm_add_r	arm_rot_r	elbow_flex_r	pro_sup_r	wrist_flex_r	wrist_dev_r	arm_flex_l	arm_add_l	arm_rot_l	elbow_flex_l	pro_sup_l	wrist_flex_l	wrist_dev_l
     10.70000000	     -4.71792853	     -1.88747153	     -1.77849522	      0.99118718	      0.92006079	      0.42955460	     31.27146685	     -5.55634526	    -15.00003548	     18.46221001	     18.46221001	      3.25069542	      1.88846569	      8.61286376	     -2.15939054	     -2.03710238	    -13.28885238	      8.22950616	      8.22950616	     16.36540254	      0.45268324	     -9.44843609	    -11.68965029	      1.33549259	      2.48088811	    -11.67857767	    -18.33955627	     -6.95186967	     28.83312039	     46.86256603	      0.00000000	      0.00000000	     24.96933151	    -19.42477080	     -1.61396299	     86.95503678	     47.55623195	      0.00000000	      0.00000000
     10.71157143	     -4.78707578	     -1.78244145	     -1.60781852	      0.99313810	      0.91773309	      0.43108106	     30.65865045	     -5.23450353	    -15.49477839	     17.24625307	     17.24625307	      3.01468395	      2.56297949	      8.97790776	     -2.82064724	     -2.02589884	    -13.15349846	      8.18657338	      8.18657338	     16.98417162	      0.61572751	     -9.46752865	    -11.44824937	      1.34326068	      2.68001041	    -13.51942939	    -18.23596184	     -7.05502307	     28.26976225	     46.86809624	      0.00000000	      0.00000000	     25.27435140	    -19.27270142	     -1.91505885	     88.57226448	     47.61859099	      0.00000000	      0.00000000
     10.72314286	     -4.84604636	     -1.73353221	     -1.42297086	      0.99505474	      0.91548732	      0.43275917	     30.20022004	     -4.95644675	    -15.94173205	     16.70713141	     16.70713141	      2.64956890	      3.06593813	      8.79827364	     -3.33145988	     -2.13628707	    -13.01389561	      8.45956163	      8.45956163	     17.76226933	      0.78278454	     -9.22938184	    -11.29507750	      1.39365505	      2.88521580	    -15.34723692	    -18.06042257	     -7.26824534	     28.05744032	     46.86480583	      0.00000000	      0.00000000	     25.27546814	    -19.11001608	     -2.24184821	     90.71182425	     47.69282573	      0.00000000	      0.00000000
     10.73471429	     -4.91674247	     -1.71900652	     -1.20220451	      0.99703111	      0.91332722	      0.43468225	     29.79363333	     -4.65686468	    -16.04462289	     16.48564023	     16.48564023	      1.34651426	      2.86398025	      5.53456154	     -3.47685504	     -2.46828049	    -13.41184695	      9.53905968	      9.53905968	     19.64862945	      1.97064007	     -7.03106360	    -11.17028331	      1.48409655	      2.42982091	    -16.98282502	    -17.83235218	     -8.25244264	     29.19040052	     46.80528628	      0.00000000	      0.00000000	     24.48857235	    -19.36903476	     -3.46418637	     93.52487426	     47.89849931	      0.00000000	      0.00000000
     10.74628571	     -5.02049760	     -1.84235805	     -0.99238547	      0.99873783	      0.91142296	      0.43666875	     29.67117874	     -4.34701022	    -16.05202858	     17.01071208	     17.01071208	      0.94763746	      2.52351404	      4.80002067	     -3.59212960	     -2.86956216	    -13.06136055	     10.42251240	     10.42251240	     20.35832722	      1.58376641	     -6.85650797	    -11.01555896	      1.73484148	      2.73965004	    -18.45502191	    -17.54043305	     -8.31381043	     28.79596208	     46.80230386	      0.00000000	      0.00000000	     24.38344599	    -19.03813888	     -3.64466499	     95.02100236	     47.94999773	      0.00000000	      0.00000000
